<svg width="28" height="38" viewBox="0 0 28 38" fill="none" xmlns="http://www.w3.org/2000/svg">
<path d="M28 14.0038C28.0014 11.6866 27.4171 9.40664 26.3015 7.37568C25.1859 5.34473 23.5751 3.62865 21.6188 2.38685C19.6625 1.14504 17.424 0.417779 15.1114 0.272616C12.7988 0.127453 10.4869 0.569097 8.39068 1.55653C6.29441 2.54395 4.48169 4.04514 3.12088 5.92065C1.76006 7.79616 0.895301 9.98515 0.60691 12.2843C0.31852 14.5835 0.615856 16.9183 1.4713 19.0718C2.32675 21.2253 3.71255 23.1276 5.5 24.6022V36.5038C5.49985 36.717 5.55422 36.9266 5.65795 37.1129C5.76167 37.2991 5.91131 37.4557 6.09263 37.5678C6.27395 37.68 6.48093 37.7438 6.69389 37.7534C6.90686 37.763 7.11873 37.7179 7.30938 37.6225L14.25 34.16L21.1922 37.6303C21.3663 37.7135 21.5571 37.7557 21.75 37.7538C22.0815 37.7538 22.3995 37.6221 22.6339 37.3877C22.8683 37.1532 23 36.8353 23 36.5038V24.6022C24.564 23.3141 25.8234 21.6958 26.6878 19.8634C27.5523 18.031 28.0004 16.0299 28 14.0038ZM3 14.0038C3 11.7787 3.6598 9.60366 4.89597 7.75361C6.13213 5.90355 7.88914 4.46161 9.94481 3.61013C12.0005 2.75864 14.2625 2.53585 16.4448 2.96994C18.6271 3.40402 20.6316 4.47548 22.205 6.04882C23.7783 7.62216 24.8498 9.62672 25.2838 11.809C25.7179 13.9913 25.4951 16.2533 24.6436 18.309C23.7922 20.3646 22.3502 22.1216 20.5002 23.3578C18.6501 24.594 16.475 25.2538 14.25 25.2538C11.2673 25.2505 8.40777 24.0641 6.29871 21.9551C4.18964 19.846 3.00331 16.9864 3 14.0038ZM5.5 14.0038C5.5 12.2732 6.01318 10.5815 6.97464 9.14253C7.9361 7.7036 9.30267 6.58209 10.9015 5.91982C12.5004 5.25756 14.2597 5.08428 15.957 5.4219C17.6544 5.75952 19.2135 6.59288 20.4372 7.81659C21.6609 9.0403 22.4943 10.5994 22.8319 12.2967C23.1695 13.9941 22.9962 15.7534 22.334 17.3523C21.6717 18.9511 20.5502 20.3177 19.1112 21.2791C17.6723 22.2406 15.9806 22.7538 14.25 22.7538C11.9301 22.7513 9.70596 21.8286 8.06556 20.1882C6.42515 18.5478 5.50248 16.3237 5.5 14.0038Z" fill="#A25905"/>
</svg>
