<svg width="34" height="28" viewBox="0 0 34 28" fill="none" xmlns="http://www.w3.org/2000/svg">
<path d="M30.7758 16.1378C31.2724 17.8188 30.2022 19.2325 28.4819 18.9268C28.711 20.6073 27.0672 22.0975 25.0789 21.1421C25.8434 23.09 24.046 24.198 22.6319 23.3575C23.3575 24.2363 22.2113 27.2161 17.7765 24.3888L16.9267 23.9218L6.92479 18.4209L6.17013 18.0061C6.17013 18.0061 2.48065 14.9947 1.75444 13.7342C-0.51728 9.80574 2.24531 3.49798 7.15444 2.44798L11.2629 1.71143L13.9727 5.82194L20.7346 8.92746L27.3507 12.6423L29.2567 14.5913L30.7758 16.1378Z" fill="#FCEA2B"/>
<path d="M30.7758 16.1378C34.2522 13.7662 33.3832 6.2947 30.7246 3.02056C25.921 2.2659 25.0349 1.79883 19.8729 0.981075L12.8746 0.66142C12.3733 0.529852 11.8409 0.591538 11.383 0.834236C10.9251 1.07693 10.5752 1.48291 10.4027 1.97159C9.9857 3.49526 9.3592 4.95366 8.54115 6.30504C8.35992 6.74863 8.35982 7.24559 8.54084 7.68925C8.72187 8.13292 9.0696 8.48795 9.50942 8.67814C10.4963 8.92435 10.9474 8.47849 11.8163 7.80608C12.5608 7.0952 13.2211 6.30121 13.7844 5.4397L20.8396 8.64866L27.4189 12.3542C28.7193 13.2319 30.0113 15.3764 30.7861 16.1404M14.6834 23.2819C14.9079 22.9383 15.2586 22.6968 15.6597 22.6097C16.0608 22.5226 16.48 22.5968 16.8268 22.8164C17.5536 23.2369 18.0884 24.0381 17.5913 24.918L16.6737 26.5219C16.4285 26.852 16.0715 27.0814 15.6693 27.1673C15.2672 27.2532 14.8476 27.1897 14.4889 26.9886C14.1303 26.7875 13.8571 26.4627 13.7206 26.0748C13.5841 25.687 13.5935 25.2627 13.7472 24.8812L14.6834 23.2809V23.2819ZM11.7506 21.6423C11.9751 21.2986 12.3258 21.0572 12.7269 20.97C13.128 20.8829 13.5473 20.9572 13.8941 21.1768C14.6208 21.5973 15.1556 22.3985 14.6586 23.2783L13.741 24.8823C13.4957 25.2121 13.1387 25.4413 12.7368 25.5271C12.3348 25.6129 11.9154 25.5494 11.5568 25.3484C11.1983 25.1475 10.9252 24.8229 10.7885 24.4352C10.6519 24.0476 10.6611 23.6235 10.8144 23.2421L11.7506 21.6423Z" fill="#FCEA2B"/>
<path d="M8.82304 20.0076C9.0475 19.664 9.39821 19.4225 9.79931 19.3354C10.2004 19.2483 10.6197 19.3225 10.9665 19.5421C11.6932 19.9626 12.228 20.7638 11.731 21.6437L10.8134 23.2476C10.5681 23.5775 10.2111 23.8067 9.80919 23.8925C9.40723 23.9783 8.98778 23.9147 8.62924 23.7138C8.27069 23.5129 7.99759 23.1882 7.86096 22.8006C7.72433 22.4129 7.73353 21.9888 7.88683 21.6075L8.82304 20.0076Z" fill="#FCEA2B"/>
<path d="M5.90067 18.3682C6.12514 18.0246 6.47584 17.7831 6.87695 17.696C7.27806 17.6089 7.69734 17.6831 8.04412 17.9027C8.77085 18.3232 9.30568 19.1244 8.80861 20.0043L7.89102 21.6082C7.64575 21.9381 7.28879 22.1673 6.88682 22.2531C6.48486 22.3389 6.06542 22.2753 5.70687 22.0744C5.34833 21.8735 5.07522 21.5488 4.93859 21.1612C4.80196 20.7735 4.81116 20.3494 4.96447 19.9681L5.90067 18.3682Z" fill="#FCEA2B"/>
<path d="M6.16965 18.0059C6.16965 18.0059 2.48016 14.9945 1.75396 13.734C-0.517769 9.80551 2.24482 3.49775 7.15396 2.44775M18.4076 17.5093L25.0748 21.1409M15.9041 19.9921L22.6283 23.3531M28.4783 18.9214L25.8403 16.6672L21.5581 14.425M13.7845 5.43896L20.8396 8.64793L27.419 12.3534C28.7193 13.2317 30.0114 15.3762 30.7862 16.1402" stroke="black" stroke-width="1.03448" stroke-linecap="round" stroke-linejoin="round"/>
<path d="M17.7765 24.3886C22.2113 27.2159 23.3575 24.236 22.6318 23.3572C24.046 24.1978 25.8434 23.0898 25.0789 21.1419C27.0672 22.0972 28.711 20.6071 28.4818 18.9266C30.2022 19.2322 31.2724 17.8186 30.7758 16.1376C34.2522 13.766 33.3832 6.29448 30.7246 3.02034C25.921 2.26569 25.0349 1.79862 19.8729 0.98086L12.8746 0.660687C12.3733 0.52912 11.8409 0.590805 11.383 0.833504C10.9251 1.0762 10.5752 1.48217 10.4027 1.97086C9.9857 3.49452 9.3592 4.95293 8.54115 6.30431C8.35992 6.7479 8.35982 7.24485 8.54084 7.68852C8.72187 8.13219 9.0696 8.48722 9.50942 8.67741C10.4963 8.92414 10.9474 8.47776 11.8163 7.80534C12.5608 7.09447 13.2211 6.30048 13.7844 5.43896" stroke="black" stroke-width="1.03448" stroke-linecap="round" stroke-linejoin="round"/>
<path d="M14.6834 23.2816C14.9079 22.9379 15.2586 22.6964 15.6597 22.6093C16.0608 22.5222 16.4801 22.5965 16.8269 22.8161C17.5536 23.2366 18.0884 24.0378 17.5913 24.9176L16.6738 26.5216C16.4285 26.8516 16.0715 27.0811 15.6694 27.167C15.2673 27.2528 14.8476 27.1893 14.489 26.9882C14.1303 26.7872 13.8572 26.4623 13.7206 26.0745C13.5841 25.6866 13.5936 25.2623 13.7472 24.8809L14.6834 23.2805V23.2816ZM11.7507 21.6419C11.9751 21.2983 12.3258 21.0568 12.7269 20.9697C13.128 20.8826 13.5473 20.9568 13.8941 21.1764C14.6208 21.5969 15.1557 22.3981 14.6586 23.278L13.741 24.8819C13.4957 25.2117 13.1388 25.441 12.7368 25.5267C12.3348 25.6125 11.9154 25.549 11.5568 25.3481C11.1983 25.1471 10.9252 24.8225 10.7886 24.4349C10.6519 24.0472 10.6611 23.6231 10.8144 23.2417L11.7507 21.6419Z" stroke="black" stroke-width="1.03448" stroke-linecap="round" stroke-linejoin="round"/>
<path d="M8.82316 20.0076C9.04762 19.664 9.39833 19.4225 9.79944 19.3354C10.2005 19.2483 10.6198 19.3225 10.9666 19.5421C11.6933 19.9626 12.2282 20.7638 11.7311 21.6437L10.8135 23.2476C10.5682 23.5775 10.2113 23.8067 9.80931 23.8925C9.40735 23.9783 8.9879 23.9147 8.62936 23.7138C8.27081 23.5129 7.99771 23.1882 7.86108 22.8006C7.72445 22.4129 7.73365 21.9888 7.88695 21.6075L8.82316 20.0076Z" stroke="black" stroke-width="1.03448" stroke-linecap="round" stroke-linejoin="round"/>
<path d="M5.90067 18.368C6.12514 18.0243 6.47584 17.7829 6.87695 17.6957C7.27806 17.6086 7.69734 17.6829 8.04412 17.9025C8.77085 18.323 9.30568 19.1242 8.80861 20.004L7.89102 21.608C7.64575 21.9378 7.28879 22.167 6.88682 22.2528C6.48486 22.3386 6.06542 22.2751 5.70687 22.0742C5.34833 21.8732 5.07522 21.5486 4.93859 21.1609C4.80196 20.7733 4.81116 20.3492 4.96447 19.9678L5.90067 18.368Z" stroke="black" stroke-width="1.03448" stroke-linecap="round" stroke-linejoin="round"/>
</svg>
