<svg width="22" height="30" viewBox="0 0 22 30" fill="none" xmlns="http://www.w3.org/2000/svg">
<path d="M18.7242 11.6272C18.7242 14.1674 17.5061 16.422 15.6146 17.8388L17.4766 20.3215C18.8283 19.3108 19.9255 17.9985 20.6808 16.4892C21.4362 14.9798 21.8289 13.315 21.8277 11.6272H18.7242ZM10.9656 3.86859C13.0233 3.86859 14.9967 4.68601 16.4518 6.14103C17.9068 7.59606 18.7242 9.56949 18.7242 11.6272H21.8277C21.8277 8.74641 20.6833 5.9836 18.6462 3.94656C16.6092 1.90953 13.8464 0.765137 10.9656 0.765137V3.86859ZM3.20697 11.6272C3.20697 9.56949 4.02439 7.59606 5.47941 6.14103C6.93444 4.68601 8.90787 3.86859 10.9656 3.86859V0.765137C8.08479 0.765137 5.32198 1.90953 3.28495 3.94656C1.24791 5.9836 0.103518 8.74641 0.103518 11.6272H3.20697ZM6.31662 17.8388C5.35036 17.1171 4.56604 16.1797 4.02615 15.1013C3.48627 14.0228 3.20576 12.8332 3.20697 11.6272H0.103518C0.102309 13.315 0.494999 14.9798 1.25035 16.4892C2.0057 17.9985 3.10286 19.3108 4.45455 20.3215L6.31662 17.8388ZM9.40921 26.7457C9.35998 24.3796 8.87116 22.0433 7.96766 19.856L5.10007 21.0431C5.85421 22.8694 6.26542 24.8246 6.30731 26.8108L9.40921 26.7457ZM13.048 25.9201C12.4015 26.2435 11.6885 26.4119 10.9656 26.4119C10.2427 26.4119 9.52972 26.2435 8.88317 25.9201L7.49593 28.6962C8.57323 29.2348 9.76114 29.5152 10.9656 29.5152C12.17 29.5152 13.3579 29.2348 14.4352 28.6962L13.048 25.9201ZM13.9635 19.8576C13.0597 22.0443 12.5703 24.38 12.5204 26.7457L15.6239 26.8108C15.6658 24.8246 16.077 22.8694 16.8311 21.0431L13.9635 19.8576ZM14.4352 28.6962C14.7863 28.5199 15.0825 28.2512 15.2919 27.9189C15.5014 27.5867 15.6162 27.2035 15.6239 26.8108L12.5204 26.7457C12.5247 26.573 12.5761 26.4048 12.6691 26.2593C12.7621 26.1138 12.8931 25.9965 13.048 25.9201L14.4352 28.6962ZM6.30731 26.8108C6.32283 27.5929 6.76352 28.33 7.49593 28.6962L8.88317 25.9201C9.03805 25.9965 9.16908 26.1138 9.26208 26.2593C9.35507 26.4048 9.40649 26.573 9.41076 26.7457L6.30731 26.8108ZM4.45455 20.3215C4.68731 20.4984 4.82541 20.6008 4.92162 20.6784C5.01938 20.7591 5.00076 20.756 4.95731 20.7001L7.40904 18.7977C7.11886 18.4222 6.66886 18.1026 6.31662 17.8388L4.45455 20.3215ZM7.96766 19.856C7.84662 19.5627 7.693 19.1624 7.40904 18.7977L4.95731 20.7001C4.93714 20.6722 4.93248 20.6582 4.95266 20.7001L5.00697 20.8212L5.10007 21.0431L7.96766 19.856ZM15.6146 17.8388C15.2623 18.1026 14.8108 18.4238 14.5206 18.7977L16.9739 20.7001C16.932 20.7544 16.9118 20.7591 17.0096 20.68C17.1058 20.6008 17.2423 20.4984 17.4766 20.3231L15.6146 17.8388ZM16.8311 21.0431L16.9242 20.8212L16.9785 20.7001C16.9987 20.6582 16.994 20.6722 16.9739 20.7001L14.5206 18.7977C14.2366 19.1639 14.0846 19.5627 13.9635 19.8576L16.8311 21.0431Z" fill="#E9DF19"/>
<path d="M15.6083 20.9375C14.2344 21.8568 12.6186 22.3476 10.9655 22.3476C9.31245 22.3476 7.6966 21.8568 6.32275 20.9375" stroke="#E9DF19" stroke-opacity="0.266667" stroke-width="3.10345"/>
</svg>
