<svg width="28" height="28" viewBox="0 0 28 28" fill="none" xmlns="http://www.w3.org/2000/svg">
<path d="M9.71973 26.9766C9.87998 27.0234 10.0414 27.0674 10.2041 27.1084C10.0414 27.0674 9.87999 27.0234 9.71973 26.9766ZM8.78613 26.665C8.83272 26.6825 8.87896 26.7009 8.92578 26.7178C8.87895 26.7009 8.83272 26.6825 8.78613 26.665ZM18.3301 14.1904C18.2811 14.1905 18.1786 14.21 18.0225 14.249C17.9443 14.2686 17.8635 14.2915 17.7803 14.3184L17.2666 14.502C17.1834 14.529 17.1027 14.5527 17.0244 14.5723C16.8682 14.6113 16.751 14.6504 16.6729 14.6895C16.6727 14.7575 16.6335 14.8017 16.5557 14.8213C16.4775 14.8408 16.4326 14.875 16.4229 14.9238L16.4531 15.041C16.4237 15.0508 16.3545 15.0849 16.2471 15.1436C16.1396 15.2022 16.0226 15.2763 15.8955 15.3643C15.7684 15.4522 15.6554 15.5302 15.5576 15.5986C15.4601 15.6669 15.3917 15.7207 15.3525 15.7598C15.1765 15.7598 14.9369 15.8192 14.6338 15.9365C14.3307 16.0539 13.9975 16.2 13.6357 16.376C13.2741 16.552 12.9173 16.7625 12.5654 17.0068C12.2136 17.2512 11.8811 17.4959 11.5684 17.7402C11.2555 17.9847 11.0149 18.2292 10.8486 18.4736C10.6825 18.7179 10.585 18.9334 10.5557 19.1191L10.9111 19.4951C11.755 19.8214 12.6264 20.0156 13.5186 20.0156C16.1069 20.0156 18.5258 18.395 20.5811 16.5889C20.579 16.5864 20.5763 16.5845 20.5742 16.582C20.4667 16.455 20.3839 16.3175 20.3252 16.1709C20.2666 16.0243 20.2325 15.8771 20.2227 15.7305C20.2227 15.6329 20.2423 15.5302 20.2812 15.4229C20.3203 15.3154 20.3545 15.212 20.3838 15.1143L20.0762 15.1885C19.91 14.8072 19.6849 14.5471 19.4014 14.4102C19.1178 14.2732 18.7604 14.2002 18.3301 14.1904ZM0.00488281 13.7129C0.0817624 10.3894 1.54103 11.7974 3.87012 14.1172C4.03598 14.0873 4.20619 14.0496 4.37988 14C4.65363 13.9218 4.89818 13.8039 5.11328 13.6475L5.02539 13.5742C5.1525 13.6036 5.28012 13.6425 5.40723 13.6914C5.53426 13.7403 5.65617 13.7949 5.77344 13.8535C5.89075 13.9122 6.01841 13.9512 6.15527 13.9707C6.29197 13.9902 6.42384 14.0098 6.55078 14.0293L6.78613 14L6.74219 13.8975C6.8789 13.9365 7.02543 13.9854 7.18164 14.0439C7.33807 14.1026 7.49006 14.1318 7.63672 14.1318C7.73441 14.1318 7.87607 14.0976 8.06152 14.0293C8.24728 13.9609 8.43338 13.8771 8.61914 13.7793C8.80489 13.6815 8.97151 13.5743 9.11816 13.457C9.2645 13.34 9.33754 13.2275 9.33789 13.1201L9.30859 13.0752C9.35745 13.0166 9.42188 12.9629 9.5 12.9141C9.57803 12.8653 9.65143 12.8164 9.71973 12.7676C9.78802 12.7188 9.8516 12.665 9.91016 12.6064C9.96876 12.5478 9.99308 12.4785 9.9834 12.4004L9.82227 12.2686L10.1592 12.2246L10.2773 11.7852C10.2577 11.8337 10.2127 11.8535 10.1445 11.8438C10.0764 11.834 10.0224 11.8144 9.9834 11.7852L10.5117 11.5059L10.1445 10.5674C10.2814 10.059 10.3164 9.66737 10.248 9.39355C10.1796 9.1198 10.0471 8.89476 9.85156 8.71875C9.65604 8.54278 9.44067 8.3664 9.20605 8.19043C8.97147 8.01445 8.73165 7.77466 8.4873 7.47168L8.53125 7.2959L7.56348 6.12207L7.34277 6.09277C7.06907 6.09276 6.76102 6.08302 6.41895 6.06348C6.07684 6.04392 5.7298 6.0098 5.37793 5.96094C5.02589 5.91204 4.6782 5.86335 4.33594 5.81445C3.99386 5.76558 3.68093 5.7022 3.39746 5.62402C3.71032 5.25249 4.0377 4.89982 4.37988 4.56738C4.7221 4.23493 5.08937 3.91738 5.48047 3.61426C5.58791 3.65334 5.71981 3.70707 5.87598 3.77539C6.03236 3.84382 6.18932 3.93156 6.3457 4.03906C6.5021 4.14661 6.6249 4.26451 6.71289 4.3916C6.80061 4.51847 6.85446 4.65051 6.87402 4.78711L6.78613 5.06641C6.96207 5.3497 7.15804 5.52631 7.37305 5.59473C7.58784 5.66301 7.80768 5.70211 8.03223 5.71191C8.257 5.72169 8.49202 5.72167 8.73633 5.71191C8.98069 5.70214 9.21561 5.74606 9.44043 5.84375L9.67578 5.34473L9.45508 4.49414L9.70508 4.12695L7.16699 3.33496C7.27455 3.06124 7.45093 2.85564 7.69531 2.71875C7.93972 2.58192 8.20869 2.51369 8.50195 2.51367V2.36719L7.68066 2.23535C8.59012 1.7855 9.53381 1.44272 10.5117 1.20801C11.4895 0.973326 12.4918 0.856468 13.5186 0.856445C14.3693 0.856446 15.2108 0.939217 16.042 1.10547C16.8731 1.2717 17.6748 1.51135 18.4473 1.82422C19.2198 2.13716 19.9688 2.52865 20.6924 2.99805C21.4157 3.46732 22.0756 3.9955 22.6719 4.58203C22.418 4.5821 22.2228 4.64563 22.0859 4.77246C21.9491 4.89956 21.8214 5.04182 21.7041 5.19824C21.5868 5.35463 21.464 5.49695 21.3369 5.62402C21.2099 5.75073 21.0389 5.8193 20.8242 5.8291L20.5889 5.65332L20.6182 5.33008L20.1348 4.64062L20.5156 3.55566C20.4668 3.52634 20.3936 3.47659 20.2959 3.4082C20.1983 3.33994 20.1152 3.30578 20.0469 3.30566C19.7537 3.30566 19.5285 3.32031 19.3721 3.34961C19.2157 3.37894 19.0782 3.43257 18.9609 3.51074C18.8437 3.58895 18.7413 3.70206 18.6533 3.84863C18.5653 3.99529 18.4279 4.18143 18.2422 4.40625L17.7139 3.99512C17.6161 4.03422 17.4598 4.09772 17.2451 4.18555C17.0301 4.27353 16.8098 4.38172 16.585 4.50879C16.3601 4.6359 16.1691 4.76838 16.0127 4.90527C15.8565 5.04204 15.7735 5.16889 15.7637 5.28613C15.7637 5.43269 15.8173 5.55072 15.9248 5.63867C16.0323 5.72646 16.174 5.79983 16.3496 5.8584C16.5256 5.91704 16.7069 5.9609 16.8926 5.99023C17.0784 6.01957 17.2644 6.05853 17.4502 6.10742C17.636 6.15631 17.7782 6.20502 17.876 6.25391C17.9736 6.30282 18.0322 6.38667 18.0518 6.50391L17.2012 6.78223C17.3966 6.94831 17.6064 7.1005 17.8311 7.2373C18.0558 7.37408 18.2909 7.50091 18.5352 7.61816L18.4766 7.86816L19.8262 8.39648V8.80664L19.9287 8.85059L19.8555 8.33789L19.9141 8.32324C19.9825 8.32324 20.0224 8.33785 20.0322 8.36719C20.0418 8.39636 20.0469 8.43095 20.0469 8.46973C20.0468 8.50863 20.037 8.54801 20.0176 8.58691C19.9981 8.62591 19.9932 8.65529 20.0029 8.6748L20.1934 8.57227L20.1641 8.63086C20.1639 8.66016 20.1493 8.70435 20.1201 8.7627C20.0909 8.82112 20.0516 8.8751 20.0029 8.92383C19.9541 8.97268 19.9141 9.02244 19.8848 9.07129C19.8557 9.11972 19.8359 9.14452 19.8262 9.14453C19.8264 9.17363 19.846 9.20332 19.8848 9.23242C19.9239 9.2617 19.9736 9.28125 20.0322 9.29102C20.0907 9.3008 20.1299 9.31545 20.1494 9.33496C20.1686 9.3542 20.1686 9.35915 20.1494 9.34961C20.0125 9.34961 19.9833 9.35935 20.0615 9.37891C20.1397 9.39852 20.2619 9.44735 20.4277 9.52539C20.5939 9.60362 20.7459 9.71662 20.8828 9.86328C21.0195 10.01 21.0976 10.2254 21.1172 10.5088C21.1172 10.6747 21.1123 10.836 21.1025 10.9922C21.0928 11.1485 21.0977 11.3105 21.1172 11.4766C21.2541 11.1051 21.4597 10.8216 21.7334 10.626C22.0071 10.4305 22.3395 10.3321 22.7305 10.332L23.3613 10.3916L23.0537 10.5967C23.2199 10.5771 23.3914 10.5576 23.5674 10.5381C23.7432 10.5186 23.9238 10.5137 24.1094 10.5234C24.2951 10.5332 24.4617 10.5722 24.6084 10.6406C24.755 10.7091 24.9022 10.8114 25.0488 10.9482L25.1367 11.6084C25.1367 11.921 25.0683 12.1756 24.9316 12.3711C24.7948 12.5665 24.5548 12.6698 24.2129 12.6797C23.9195 12.6797 23.6302 12.6358 23.3467 12.5479C23.0632 12.4599 22.7844 12.3566 22.5107 12.2393C22.5987 12.4543 22.6972 12.66 22.8047 12.8555C22.9122 13.051 22.9902 13.2664 23.0391 13.501L22.8486 13.5889C22.614 13.4325 22.3986 13.4082 22.2031 13.5156C22.0076 13.6232 21.8166 13.78 21.6309 13.9854C21.4451 14.1906 21.2541 14.4011 21.0586 14.6162C20.8631 14.8312 20.6525 14.9872 20.4277 15.085L20.9268 15.3496L22.1006 14.6895C22.0908 14.7091 22.081 14.7531 22.0713 14.8213C22.0616 14.8894 22.0665 14.904 22.0859 14.8652L22.6133 13.9707C22.8702 13.9627 23.1404 13.9269 23.4238 13.8662C25.6493 11.6574 27.0154 10.4636 27.0371 13.915C26.9915 6.48753 20.9566 0.480474 13.5186 0.480469C6.14823 0.480605 0.157629 6.37894 0.00488281 13.7129ZM19.2842 12.5918C18.8832 12.5918 18.5161 12.66 18.1836 12.7969C18.3205 12.8458 18.4579 12.8847 18.5947 12.9141C18.7314 12.9433 18.8731 12.9629 19.0195 12.9727C19.2151 12.9727 19.3914 12.9532 19.5479 12.9141C19.4991 12.8361 19.4501 12.7872 19.4014 12.7676C19.3526 12.7481 19.3135 12.6892 19.2842 12.5918ZM21.2637 11.9316C21.1367 11.9317 20.9951 11.9512 20.8389 11.9902C20.6824 12.0294 20.5256 12.0829 20.3691 12.1514C20.2127 12.2198 20.0558 12.2831 19.8994 12.3418C19.7431 12.4004 19.6016 12.4599 19.4746 12.5186L19.709 12.5479C19.7872 12.5576 19.871 12.5625 19.959 12.5625C20.1249 12.5625 20.2764 12.538 20.4131 12.4893C20.5499 12.4404 20.6776 12.376 20.7949 12.2979C20.9121 12.2198 21.0293 12.1612 21.1465 12.1221C21.2638 12.083 21.3719 12.0537 21.4697 12.0342C21.5674 12.0342 21.6553 12.0537 21.7334 12.0928C21.8115 12.1318 21.8897 12.1758 21.9678 12.2246C21.9679 12.1856 22.0029 12.166 22.0713 12.166C22.0028 12.0976 21.8752 12.044 21.6895 12.0049C21.5037 11.9658 21.3615 11.9414 21.2637 11.9316ZM3.17773 5.90234C3.19728 5.99015 3.22168 6.05372 3.25098 6.09277C3.28022 6.132 3.29981 6.22077 3.30957 6.35742C3.3094 6.44511 3.27519 6.52847 3.20703 6.60645C3.13861 6.68461 3.04985 6.76265 2.94238 6.84082C2.8349 6.91898 2.7276 6.97848 2.62012 7.01758C2.51258 7.05668 2.41903 7.09079 2.34082 7.12012C2.47767 6.90506 2.6151 6.69942 2.75195 6.50391C2.88882 6.30838 3.03109 6.10765 3.17773 5.90234ZM3.35352 5.68262C3.35359 5.76051 3.3682 5.81449 3.39746 5.84375H3.30957C3.27066 5.84375 3.24124 5.84872 3.22168 5.8584L3.35352 5.68262Z" fill="#023047"/>
<path d="M0.96582 11.918C0.838894 11.8783 0.76628 11.8871 0.724609 11.9033C0.685604 11.9187 0.62617 11.959 0.561523 12.083C0.420805 12.3533 0.323256 12.8891 0.323242 13.8193C0.323242 21.1075 6.23155 27.0156 13.5195 27.0156C20.8073 27.0154 26.7148 21.1074 26.7148 13.8193C26.7148 12.8891 26.6173 12.3533 26.4766 12.083C26.4119 11.959 26.3525 11.9187 26.3135 11.9033C26.2718 11.8871 26.1992 11.8783 26.0723 11.918C25.8019 12.0026 25.4285 12.259 24.9424 12.6846C24.466 13.1017 23.9206 13.6451 23.3066 14.2568C22.0865 15.4725 20.6107 16.9439 18.9678 18.1094C17.3264 19.2736 15.4823 20.1581 13.5195 20.1582C11.5566 20.1582 9.71179 19.2737 8.07031 18.1094C6.42737 16.9439 4.95161 15.4725 3.73145 14.2568C3.11744 13.6451 2.5721 13.1017 2.0957 12.6846C1.60957 12.259 1.23619 12.0026 0.96582 11.918Z" stroke="#023047" stroke-width="0.645923"/>
<path d="M19.9869 22.6917L17.8193 21.0542L17.1602 21.4754L18.9608 22.8616L17.4184 24.0643L17.7921 24.4992L19.9869 22.6917ZM12.6346 20.4358L14.4421 25.2058L15.3254 25.0088L13.5044 20.1572L12.6346 20.4358ZM10.6604 24.0643L9.11794 22.8616L10.9186 21.4754L10.2595 21.0542L8.09191 22.6917L10.2867 24.4992L10.6604 24.0643Z" fill="#023047"/>
</svg>
