<svg width="40" height="40" viewBox="0 0 40 40" fill="none" xmlns="http://www.w3.org/2000/svg">
<g clip-path="url(#clip0_2005_1151)">
<path d="M40 37.7777C40 38.367 39.7659 38.9323 39.3491 39.349C38.9324 39.7658 38.3671 39.9999 37.7778 39.9999H2.22222C1.63285 39.9999 1.06762 39.7658 0.650874 39.349C0.234126 38.9323 0 38.367 0 37.7777V16.6666C0 16.0772 0.234126 15.512 0.650874 15.0952C1.06762 14.6785 1.63285 14.4443 2.22222 14.4443H37.7778C38.3671 14.4443 38.9324 14.6785 39.3491 15.0952C39.7659 15.512 40 16.0772 40 16.6666V37.7777Z" fill="#FFCC4D"/>
<path d="M37.7778 14.4443H2.22222C1.63285 14.4443 1.06762 14.6785 0.650874 15.0952C0.234126 15.512 0 16.0772 0 16.6666H40C40 16.0772 39.7659 15.512 39.3491 15.0952C38.9324 14.6785 38.3671 14.4443 37.7778 14.4443Z" fill="#6D6E71"/>
<path d="M2.22222 26.6667H37.7778V31.1111H2.22222V26.6667ZM2.22222 20H37.7778V24.4444H2.22222V20ZM2.22222 33.3333H37.7778V37.7778H2.22222V33.3333Z" fill="#3B88C3"/>
<path d="M31.1111 18.8887H33.3333V38.8887H31.1111V18.8887Z" fill="#FFCC4D"/>
<path d="M24.4444 0H6.66667C6.0773 0 5.51206 0.234126 5.09532 0.650874C4.67857 1.06762 4.44444 1.63285 4.44444 2.22222V40H26.6667V2.22222C26.6667 1.63285 26.4325 1.06762 26.0158 0.650874C25.599 0.234126 25.0338 0 24.4444 0Z" fill="#FFE8B6"/>
<path d="M24.4444 0H6.66667C6.0773 0 5.51206 0.234126 5.09532 0.650874C4.67857 1.06762 4.44444 1.63285 4.44444 2.22222H26.6667C26.6667 1.63285 26.4325 1.06762 26.0158 0.650874C25.599 0.234126 25.0338 0 24.4444 0Z" fill="#808285"/>
<path d="M6.66666 20H24.4444V24.4444H6.66666V20ZM6.66666 26.6667H24.4444V31.1111H6.66666V26.6667ZM6.66666 33.3333H24.4444V37.7778H6.66666V33.3333Z" fill="#55ACEE"/>
<path d="M11.1111 7.77783H13.3333V40.0001H11.1111V7.77783ZM17.7778 7.77783H20V40.0001H17.7778V7.77783Z" fill="#FFE8B6"/>
<path d="M13.3333 33.3335H17.7778V40.0002H13.3333V33.3335Z" fill="#226699"/>
<path d="M15.5556 16.6668C19.2375 16.6668 22.2222 13.6821 22.2222 10.0002C22.2222 6.31826 19.2375 3.3335 15.5556 3.3335C11.8737 3.3335 8.88889 6.31826 8.88889 10.0002C8.88889 13.6821 11.8737 16.6668 15.5556 16.6668Z" fill="#A7A9AC"/>
<path d="M15.5556 14.4446C18.0102 14.4446 20 12.4547 20 10.0001C20 7.54551 18.0102 5.55566 15.5556 5.55566C13.101 5.55566 11.1111 7.54551 11.1111 10.0001C11.1111 12.4547 13.101 14.4446 15.5556 14.4446Z" fill="#E6E7E8"/>
<path d="M18.8889 11.1113H15.5556C15.2609 11.1113 14.9783 10.9942 14.7699 10.7858C14.5615 10.5775 14.4444 10.2948 14.4444 10.0002V4.44461C14.4444 4.14992 14.5615 3.86731 14.7699 3.65893C14.9783 3.45056 15.2609 3.3335 15.5556 3.3335C15.8502 3.3335 16.1329 3.45056 16.3412 3.65893C16.5496 3.86731 16.6667 4.14992 16.6667 4.44461V8.88905H18.8889C19.1836 8.88905 19.4662 9.00612 19.6746 9.21449C19.8829 9.42286 20 9.70548 20 10.0002C20 10.2948 19.8829 10.5775 19.6746 10.7858C19.4662 10.9942 19.1836 11.1113 18.8889 11.1113Z" fill="#A0041E"/>
</g>
<defs>
<clipPath id="clip0_2005_1151">
<rect width="40" height="40" fill="white"/>
</clipPath>
</defs>
</svg>
