<svg width="40" height="40" viewBox="0 0 40 40" fill="none" xmlns="http://www.w3.org/2000/svg">
<path fill-rule="evenodd" clip-rule="evenodd" d="M32.768 1.1046C32.7071 0.858975 32.582 0.633942 32.4056 0.452528C32.2291 0.271114 32.0076 0.139833 31.7638 0.0721133C31.5199 0.00439401 31.2625 0.0026683 31.0177 0.0671127C30.773 0.131557 30.5498 0.259858 30.3709 0.43889L24.6566 6.15318C24.4824 6.32781 24.3563 6.54461 24.2907 6.78244C24.2251 7.02027 24.2222 7.27104 24.2823 7.51032L25.3109 11.636L25.2709 11.676L18.4395 18.5075C18.061 18.9137 17.8549 19.451 17.8647 20.0061C17.8745 20.5612 18.0994 21.0909 18.492 21.4835C18.8846 21.8761 19.4143 22.101 19.9694 22.1108C20.5246 22.1206 21.0618 21.9145 21.4681 21.536L28.3052 14.7075L28.3452 14.6646L32.468 15.696C32.7073 15.7561 32.9581 15.7533 33.1959 15.6877C33.4338 15.6221 33.6506 15.496 33.8252 15.3217L39.5395 9.60746C39.7192 9.42866 39.8482 9.20524 39.9131 8.96012C39.978 8.71502 39.9764 8.45705 39.9087 8.21273C39.8409 7.9684 39.7093 7.74651 39.5274 7.56985C39.3456 7.39318 39.12 7.26811 38.8738 7.20746L33.9909 5.99032L32.768 1.1046ZM20.8595 2.19032C20.8987 2.75709 20.7113 3.31625 20.3384 3.74487C19.9655 4.17349 19.4377 4.43649 18.8709 4.47603C15.8858 4.68291 13.0227 5.74241 10.6221 7.52864C8.22137 9.31488 6.38394 11.7528 5.32809 14.5526C4.27223 17.3524 4.04235 20.3965 4.66576 23.3232C5.28916 26.2498 6.73964 28.936 8.84484 31.0625C10.95 33.189 13.6215 34.6665 16.5417 35.3193C19.4619 35.9721 22.5082 35.7729 25.3185 34.7453C28.1288 33.7177 30.5851 31.9049 32.3954 29.5223C34.2057 27.1397 35.294 24.2875 35.5309 21.3046C35.576 20.7378 35.8444 20.2121 36.2771 19.8432C36.7097 19.4743 37.2712 19.2924 37.838 19.3375C38.4049 19.3825 38.9305 19.651 39.2994 20.0836C39.6684 20.5163 39.8503 21.0778 39.8052 21.6446C39.5028 25.4452 38.1158 29.0792 35.8089 32.1147C33.5021 35.1502 30.3723 37.4598 26.7914 38.7689C23.2106 40.078 19.3292 40.3317 15.6085 39.4998C11.8877 38.6679 8.48394 36.7854 5.80158 34.076C3.11921 31.3665 1.27099 27.944 0.47651 24.2151C-0.317973 20.4862 -0.0253273 16.6075 1.31968 13.04C2.66469 9.47251 5.00552 6.36608 8.06406 4.0898C11.1226 1.81352 14.7703 0.463068 18.5738 0.19889C19.1405 0.159637 19.6997 0.347063 20.1283 0.719963C20.5569 1.09286 20.8199 1.62357 20.8595 2.19032ZM18.9395 11.6132C19.0422 11.8753 19.0922 12.155 19.0867 12.4364C19.0813 12.7178 19.0204 12.9954 18.9076 13.2533C18.7949 13.5112 18.6324 13.7443 18.4295 13.9394C18.2266 14.1345 17.9873 14.2877 17.7252 14.3903C16.7882 14.7579 15.9575 15.3531 15.3083 16.1223C14.6591 16.8915 14.2118 17.8103 14.0068 18.7957C13.8019 19.7812 13.8457 20.8022 14.1344 21.7664C14.4231 22.7307 14.9475 23.6078 15.6603 24.3184C16.373 25.0291 17.2517 25.551 18.2167 25.8369C19.1818 26.1227 20.2029 26.1636 21.1878 25.9558C22.1726 25.7479 23.0901 25.298 23.8574 24.6465C24.6247 23.9951 25.2175 23.1627 25.5823 22.2246C25.6844 21.9623 25.8371 21.7227 26.0318 21.5195C26.2264 21.3162 26.4592 21.1533 26.7168 21.04C26.9744 20.9267 27.2518 20.8653 27.5332 20.8592C27.8146 20.8532 28.0944 20.9025 28.3566 21.0046C28.6189 21.1067 28.8585 21.2594 29.0617 21.454C29.265 21.6487 29.4279 21.8815 29.5412 22.1391C29.6545 22.3967 29.7159 22.6741 29.722 22.9555C29.7281 23.2368 29.6787 23.5166 29.5766 23.7789C28.9535 25.3808 27.9409 26.8022 26.6305 27.9146C25.32 29.0269 23.753 29.7951 22.0711 30.1497C20.3892 30.5043 18.6455 30.4342 16.9975 29.9456C15.3495 29.457 13.8493 28.5654 12.6324 27.3514C11.4156 26.1374 10.5205 24.6393 10.028 22.9925C9.53559 21.3456 9.46135 19.602 9.81201 17.9193C10.1627 16.2366 10.9272 14.6678 12.0364 13.3547C13.1457 12.0417 14.5647 11.0258 16.1652 10.3989C16.6941 10.1924 17.2834 10.2043 17.8036 10.432C18.3238 10.6597 18.7323 11.0845 18.9395 11.6132Z" fill="#6B6D05"/>
</svg>
