<svg width="36" height="37" viewBox="0 0 36 37" fill="none" xmlns="http://www.w3.org/2000/svg">
<path d="M18.9263 36.8354C18.6196 36.851 18.311 36.8579 18.0005 36.8579V36.8589C18.311 36.8589 18.6196 36.851 18.9263 36.8354ZM20.7417 36.6519C20.5926 36.6746 20.4428 36.6952 20.2925 36.7144C20.4428 36.6952 20.5926 36.6746 20.7417 36.6519ZM23.0542 36.1382C22.8855 36.1874 22.7161 36.2354 22.5454 36.2798C22.7161 36.2354 22.8855 36.1874 23.0542 36.1382ZM31.3237 30.9614C31.189 31.1097 31.0512 31.2552 30.9116 31.3989C31.0512 31.2552 31.189 31.1097 31.3237 30.9614ZM24.4058 19.1138C24.3407 19.1138 24.2039 19.1398 23.9956 19.1919C23.8915 19.2179 23.784 19.2489 23.6733 19.2847L22.9897 19.5288C22.8791 19.5646 22.7716 19.5955 22.6675 19.6216C22.4592 19.6737 22.3029 19.7257 22.1987 19.7778C22.1987 19.8689 22.1466 19.9276 22.0425 19.9536C21.9383 19.9797 21.8797 20.0252 21.8667 20.0903L21.9058 20.2466C21.8667 20.2596 21.7755 20.3052 21.6323 20.3833C21.4891 20.4614 21.3328 20.5591 21.1636 20.6763C20.9943 20.7934 20.8445 20.8976 20.7144 20.9888C20.5842 21.0799 20.493 21.1515 20.4409 21.2036C20.2066 21.2036 19.8875 21.2817 19.4839 21.438C19.0803 21.5942 18.6375 21.7896 18.1558 22.0239C17.674 22.2583 17.1987 22.5383 16.73 22.8638C16.2613 23.1893 15.8185 23.5148 15.4019 23.8403C14.9853 24.1658 14.6661 24.4914 14.4448 24.8169C14.2236 25.1423 14.0933 25.4289 14.0542 25.6763L14.5259 26.1743C15.6502 26.6093 16.8108 26.8686 17.9995 26.8687C21.4457 26.8687 24.6654 24.7109 27.4019 22.3062C27.3993 22.3032 27.3966 22.3004 27.394 22.2974C27.2509 22.1282 27.1401 21.9457 27.062 21.7505C26.9839 21.5552 26.9383 21.3598 26.9253 21.1646C26.9253 21.0344 26.9514 20.8976 27.0034 20.7544C27.0555 20.6112 27.1011 20.4744 27.1401 20.3442L26.73 20.4419C26.5087 19.9342 26.209 19.5891 25.8315 19.4067C25.454 19.2245 24.9786 19.1268 24.4058 19.1138ZM18.0005 0.858887C8.0659 0.858887 0.0107384 8.90787 0.000488281 18.8403C0.00547409 13.9543 1.96984 15.8468 5.15283 19.0171C5.37375 18.9772 5.60028 18.9259 5.83154 18.8599C6.19597 18.7557 6.52174 18.5993 6.80811 18.3911L6.69092 18.2935C6.86008 18.3325 7.02956 18.3847 7.19873 18.4497C7.36791 18.5148 7.53084 18.5865 7.68701 18.6646C7.84316 18.7426 8.01266 18.7947 8.19482 18.8208C8.377 18.8468 8.553 18.8729 8.72217 18.8989L9.03467 18.8599L8.97607 18.7231C9.15829 18.7752 9.35377 18.8404 9.56201 18.9185C9.77023 18.9965 9.97227 19.0356 10.1675 19.0356C10.2976 19.0356 10.4866 18.99 10.7339 18.8989C10.9812 18.8078 11.2288 18.697 11.4761 18.5669C11.7234 18.4367 11.9449 18.2934 12.1401 18.1372C12.3354 17.981 12.433 17.8312 12.4331 17.688L12.394 17.6294C12.4591 17.5513 12.5439 17.4796 12.6479 17.4146C12.752 17.3495 12.8498 17.2843 12.9409 17.2192C13.032 17.1542 13.1168 17.0824 13.1948 17.0044C13.2729 16.9263 13.3055 16.8351 13.2925 16.731L13.0776 16.5552L13.5269 16.4966L13.6831 15.9106C13.657 15.9756 13.5984 16.0018 13.5073 15.9888C13.4163 15.9757 13.3445 15.9497 13.2925 15.9106L13.9956 15.5396L13.5073 14.2896C13.6896 13.6125 13.7352 13.0916 13.644 12.7271C13.5529 12.3625 13.3771 12.063 13.1167 11.8286C12.8563 11.5943 12.5698 11.3598 12.2573 11.1255C11.9449 10.8911 11.6258 10.5721 11.3003 10.1685L11.3589 9.93408L10.0698 8.37158L9.77686 8.33252C9.41236 8.33251 9.00197 8.31949 8.54639 8.29346C8.09078 8.26741 7.62829 8.22183 7.15967 8.15674C6.69106 8.09165 6.22854 8.02651 5.77295 7.96143C5.3174 7.89633 4.90043 7.81165 4.52295 7.70752C4.93952 7.21283 5.37593 6.74389 5.83154 6.30127C6.28717 5.85865 6.77568 5.43531 7.29639 5.03174C7.43955 5.0838 7.61553 5.1555 7.82373 5.24658C8.03199 5.3377 8.24047 5.45498 8.44873 5.59814C8.65701 5.74134 8.81983 5.89766 8.93701 6.06689C9.05419 6.23616 9.12581 6.41195 9.15186 6.59424L9.03467 6.96533C9.26897 7.34282 9.52957 7.57725 9.81592 7.66846C10.1023 7.75957 10.3955 7.81167 10.6948 7.82471C10.9942 7.83772 11.3069 7.83772 11.6323 7.82471C11.9578 7.81169 12.2704 7.87033 12.5698 8.00049L12.8823 7.33643L12.5894 6.20361L12.9214 5.71533L9.54248 4.66064C9.68567 4.29617 9.92024 4.02262 10.2456 3.84033C10.571 3.65809 10.9293 3.56694 11.3198 3.56689V3.37158L10.2261 3.1958C11.4369 2.59688 12.6936 2.14111 13.9956 1.82861C15.2976 1.51612 16.6324 1.35987 17.9995 1.35986C19.1323 1.35986 20.2522 1.47054 21.3589 1.69189C22.4656 1.91325 23.5334 2.23227 24.562 2.64893C25.5906 3.06558 26.5868 3.58646 27.5503 4.21143C28.5137 4.83639 29.3928 5.53961 30.187 6.3208C29.8486 6.3208 29.588 6.40551 29.4058 6.57471C29.2235 6.74396 29.0542 6.93281 28.8979 7.14111C28.7417 7.34941 28.5789 7.53827 28.4097 7.70752C28.2404 7.87674 28.0124 7.9679 27.7261 7.98096L27.4136 7.74658L27.4526 7.31689L26.8081 6.39893L27.3159 4.95361C27.2508 4.91457 27.1531 4.84937 27.0229 4.7583C26.8928 4.66723 26.782 4.62165 26.6909 4.62158C26.3004 4.62158 26.0008 4.64113 25.7925 4.68018C25.5842 4.71923 25.4018 4.79088 25.2456 4.89502C25.0894 4.99918 24.9526 5.14893 24.8354 5.34424C24.7183 5.53955 24.536 5.78696 24.2886 6.08643L23.5854 5.53955C23.4553 5.59163 23.2469 5.67628 22.9604 5.79346C22.674 5.91064 22.381 6.05388 22.0815 6.22314C21.7821 6.39241 21.5281 6.5682 21.3198 6.75049C21.1115 6.93276 21.0008 7.10206 20.9878 7.2583C20.9878 7.45356 21.0594 7.60989 21.2026 7.72705C21.3459 7.84421 21.5347 7.94191 21.769 8.02002C22.0034 8.09813 22.2443 8.15674 22.4917 8.1958C22.7391 8.23486 22.9865 8.28696 23.2339 8.35205C23.4812 8.41714 23.6701 8.48227 23.8003 8.54736C23.9304 8.61247 24.0086 8.72321 24.0347 8.87939L22.9019 9.25049C23.1622 9.4718 23.4423 9.67369 23.7417 9.85596C24.0411 10.0382 24.3537 10.2075 24.6792 10.3638L24.6011 10.6958L26.3979 11.3989V11.9458L26.5347 12.0044L26.437 11.3208L26.5151 11.3013C26.6061 11.3013 26.6584 11.3208 26.6714 11.3599C26.6844 11.3989 26.6909 11.4446 26.6909 11.4966C26.6909 11.5486 26.6779 11.6008 26.6519 11.6528C26.6258 11.7049 26.6193 11.744 26.6323 11.77L26.8862 11.6333L26.8472 11.7114C26.8471 11.7505 26.8276 11.8092 26.7886 11.8872C26.7495 11.9653 26.6974 12.037 26.6323 12.1021C26.5672 12.1671 26.5151 12.2323 26.4761 12.2974C26.4372 12.3621 26.411 12.3947 26.3979 12.395C26.398 12.434 26.4241 12.4732 26.4761 12.5122C26.5281 12.5512 26.5934 12.5773 26.6714 12.5903C26.7494 12.6034 26.8016 12.6229 26.8276 12.6489C26.8534 12.6748 26.8534 12.6813 26.8276 12.6685C26.6454 12.6685 26.6063 12.6815 26.7104 12.7075C26.8146 12.7336 26.9775 12.7987 27.1987 12.9028C27.42 13.007 27.622 13.1568 27.8042 13.3521C27.9864 13.5474 28.0907 13.834 28.1167 14.2114C28.1167 14.4327 28.1102 14.6477 28.0972 14.856C28.0842 15.0642 28.0907 15.2792 28.1167 15.5005C28.299 15.0057 28.5724 14.6281 28.937 14.3677C29.3016 14.1073 29.7444 13.9771 30.2651 13.9771L31.105 14.0552L30.6948 14.3286C30.9161 14.3026 31.1442 14.2765 31.3784 14.2505C31.6127 14.2245 31.8538 14.2179 32.1011 14.231C32.3483 14.244 32.5699 14.2961 32.7651 14.3872C32.9603 14.4784 33.1559 14.6152 33.3511 14.7974L33.4683 15.6763C33.4682 16.0928 33.377 16.4315 33.1948 16.6919C33.0126 16.9522 32.6933 17.089 32.2378 17.1021C31.8473 17.1021 31.4629 17.0434 31.0854 16.9263C30.708 16.8091 30.3366 16.6723 29.9722 16.5161C30.0893 16.8025 30.2196 17.0761 30.3628 17.3364C30.5059 17.5968 30.6102 17.8834 30.6753 18.1958L30.4214 18.313C30.109 18.1047 29.8224 18.0722 29.562 18.2153C29.3016 18.3585 29.0477 18.5669 28.8003 18.8403C28.5529 19.1138 28.299 19.3937 28.0386 19.6802C27.7782 19.9666 27.4981 20.175 27.1987 20.3052L27.8628 20.6567L29.4253 19.7778C29.4123 19.8039 29.3992 19.8625 29.3862 19.9536C29.3732 20.0447 29.3797 20.0643 29.4058 20.0122L30.1089 18.8208C30.4514 18.8101 30.8112 18.7622 31.189 18.6812C34.1713 15.7211 35.9947 14.1306 35.9995 18.8403C35.9893 8.90807 27.9348 0.859211 18.0005 0.858887ZM25.6753 16.9849C25.1415 16.9849 24.6531 17.076 24.2104 17.2583C24.3927 17.3234 24.5751 17.3755 24.7573 17.4146C24.9396 17.4536 25.1285 17.4797 25.3237 17.4927C25.5841 17.4927 25.8186 17.4666 26.0269 17.4146C25.9618 17.3105 25.8966 17.2453 25.8315 17.2192C25.7665 17.1932 25.7143 17.115 25.6753 16.9849ZM28.312 16.106C28.1428 16.106 27.9539 16.132 27.7456 16.1841C27.5373 16.2362 27.3289 16.3078 27.1206 16.3989C26.9123 16.4901 26.7039 16.5747 26.4956 16.6528C26.2873 16.7309 26.0984 16.8091 25.9292 16.8872L26.2417 16.9263C26.3458 16.9393 26.4566 16.9458 26.5737 16.9458C26.795 16.9458 26.997 16.9132 27.1792 16.8481C27.3614 16.783 27.5308 16.6984 27.687 16.5942C27.8432 16.4901 27.9996 16.4119 28.1558 16.3599C28.3119 16.3078 28.4553 16.2687 28.5854 16.2427C28.7155 16.2427 28.8329 16.2688 28.937 16.3208C29.0411 16.3728 29.1454 16.4315 29.2495 16.4966C29.2495 16.4445 29.2951 16.4185 29.3862 16.4185C29.2951 16.3274 29.1256 16.2557 28.8784 16.2036C28.6312 16.1516 28.4422 16.119 28.312 16.106ZM4.22998 8.07861C4.25599 8.19567 4.28863 8.28042 4.32764 8.33252C4.3667 8.3846 4.39274 8.5018 4.40576 8.68408C4.40573 8.80122 4.36015 8.91198 4.26904 9.01611C4.178 9.12011 4.06142 9.22461 3.91846 9.32861C3.77536 9.43269 3.63187 9.51091 3.48877 9.56299C3.34571 9.61501 3.22176 9.66068 3.11768 9.69971C3.29993 9.4133 3.4823 9.13977 3.66455 8.87939C3.84673 8.61913 4.03479 8.35189 4.22998 8.07861ZM4.46436 7.78564C4.46437 7.88958 4.48403 7.9614 4.52295 8.00049H4.40576C4.35392 8.00053 4.31454 8.00704 4.28857 8.02002L4.46436 7.78564Z" fill="white"/>
<path d="M1.28662 16.0869C1.11754 16.034 1.02083 16.0458 0.965332 16.0674C0.91334 16.0877 0.833983 16.1416 0.747559 16.3076C0.560188 16.6675 0.430176 17.3805 0.430176 18.6191C0.430242 28.3227 8.29629 36.1893 17.9995 36.1895C27.7029 36.1895 35.5698 28.3228 35.5698 18.6191C35.5698 17.3806 35.4398 16.6675 35.2524 16.3076C35.1659 16.1413 35.0857 16.0876 35.0337 16.0674C34.9781 16.0458 34.8821 16.0341 34.7134 16.0869C34.3533 16.1996 33.856 16.5415 33.2085 17.1084C32.5743 17.6637 31.8482 18.3868 31.0308 19.2012C29.4063 20.8195 27.4426 22.7785 25.2554 24.3301C23.0697 25.8805 20.6132 27.0596 17.9995 27.0596C15.3859 27.0595 12.9302 25.8804 10.7446 24.3301C8.55721 22.7783 6.59279 20.8197 4.96826 19.2012C4.15091 18.3869 3.42571 17.6637 2.7915 17.1084C2.14413 16.5416 1.64668 16.1996 1.28662 16.0869Z" stroke="white" stroke-width="0.86"/>
<path d="M26.6112 30.7739L23.7253 28.5936L22.8477 29.1545L25.2451 31.0001L23.1915 32.6014L23.6891 33.1804L26.6112 30.7739ZM16.8222 27.7703L19.2287 34.1212L20.4048 33.8589L17.9802 27.3994L16.8222 27.7703ZM14.1937 32.6014L12.14 31.0001L14.5375 29.1545L13.6599 28.5936L10.7739 30.7739L13.6961 33.1804L14.1937 32.6014Z" fill="white"/>
</svg>
