<svg width="39" height="39" viewBox="0 0 39 39" fill="none" xmlns="http://www.w3.org/2000/svg">
<path d="M10.4053 19.5196C10.8708 20.9162 11.1035 22.08 11.1035 22.08C12.9656 25.1058 15.2932 24.6403 15.2932 26.2696C15.2932 26.9679 14.8277 27.6662 14.1294 27.8989L19.4828 32.0886L24.8363 28.1317C24.138 27.6662 23.6725 27.2006 23.6725 26.5024C23.6725 24.6403 26.0001 25.3386 27.8622 22.3127C27.8622 22.3127 28.3277 21.3817 28.5604 19.7524C29.2587 17.192 29.957 12.5369 29.7242 10.2093H26.2328C26.2328 9.51099 26.4656 8.81272 26.4656 7.88168H29.0259C28.3277 4.62306 26.6984 3.22651 23.9053 2.52824C22.7415 1.5972 21.1121 0.898926 19.4828 0.898926C17.8535 0.898926 16.2242 1.5972 15.0604 2.52824C12.2673 3.22651 10.8708 4.62306 9.93973 7.88168H12.5001C12.5001 8.81272 12.7328 9.51099 12.9656 10.2093H9.24146C9.0087 12.5369 9.70697 17.192 10.4053 19.5196ZM26.9311 20.6834L26.2328 21.3817L25.069 22.7782C24.138 23.942 23.207 24.6403 21.8104 24.8731L20.8794 25.1058C19.9484 25.3386 18.7846 25.3386 17.6208 25.1058L16.6897 24.8731C15.2932 24.4075 14.1294 23.7093 13.1984 22.3127L12.7328 21.3817L12.0346 20.6834L10.4053 19.5196L17.6208 17.4248C18.7846 17.192 19.9484 16.9593 21.1121 17.4248L28.5604 19.5196L26.9311 20.6834ZM14.8277 7.88168C14.8277 5.32134 16.9225 3.22651 19.4828 3.22651C22.0432 3.22651 24.138 5.32134 24.138 7.88168C24.138 10.442 22.0432 12.5369 19.4828 12.5369C16.9225 12.5369 14.8277 10.442 14.8277 7.88168Z" fill="#6F2F2F"/>
<path d="M36.9396 33.9508C33.9138 28.3646 30.8879 29.2956 27.8621 28.8301H27.6293L19.4827 34.8818L11.3362 28.8301H11.1034C7.84482 29.0628 5.05172 28.3646 2.02585 33.9508C1.56034 34.8818 1.09482 36.5111 0.862061 38.1404H38.1034C37.8707 36.5111 37.4052 34.8818 36.9396 33.9508Z" fill="#6F2F2F"/>
</svg>
